<svg width="223" height="223" viewBox="0 0 223 223" fill="none" xmlns="http://www.w3.org/2000/svg">
<path d="M36.9344 195.124V167.249H65.7386L42.0448 89.664C37.8636 87.341 34.4195 83.9341 31.7125 79.4431C29.0055 74.9522 27.649 70.1515 27.6428 65.0411C27.6428 57.298 30.3528 50.7164 35.773 45.2963C41.1931 39.8761 47.7747 37.1661 55.5178 37.1661C61.5573 37.1661 66.9403 38.9098 71.6667 42.3973C76.393 45.8847 79.6823 50.3354 81.5344 55.7494H111.268V46.4577C111.268 43.8251 112.16 41.6199 113.944 39.8421C115.728 38.0643 117.933 37.1722 120.559 37.1661C121.953 37.1661 123.31 37.4758 124.629 38.0952C125.949 38.7147 127.07 39.6438 127.993 40.8827L143.789 26.0161C145.182 24.6223 146.849 23.7303 148.788 23.3401C150.726 22.9498 152.622 23.2224 154.474 24.1577L190.712 40.8827C192.57 41.8119 193.849 43.1685 194.549 44.9525C195.249 46.7365 195.209 48.4771 194.428 50.1744C193.499 52.0327 192.146 53.2344 190.368 53.7796C188.59 54.3247 186.846 54.207 185.137 53.4265L151.687 38.0952L129.851 58.5369V71.5452L151.687 91.5223L185.137 76.1911C186.84 75.4167 188.621 75.3393 190.479 75.9588C192.338 76.5782 193.654 77.7397 194.428 79.4431C195.357 81.3015 195.435 83.0824 194.66 84.7858C193.886 86.4893 192.57 87.8056 190.712 88.7348L154.474 105.924C152.616 106.854 150.72 107.123 148.788 106.733C146.855 106.343 145.189 105.454 143.789 104.066L127.993 89.1994C127.064 90.1286 125.942 90.9803 124.629 91.7546C123.316 92.5289 121.959 92.9161 120.559 92.9161C117.927 92.9161 115.722 92.0272 113.944 90.2494C112.166 88.4715 111.274 86.2632 111.268 83.6244V74.3327H81.5344C81.0698 75.5716 80.5681 76.7331 80.0292 77.8171C79.4903 78.9011 78.7531 80.0626 77.8178 81.3015L124.276 167.249H157.726V195.124H36.9344ZM55.5178 74.3327C58.1504 74.3327 60.3587 73.4407 62.1427 71.6567C63.9267 69.8727 64.8156 67.6675 64.8094 65.0411C64.8032 62.4146 63.9143 60.2094 62.1427 58.4254C60.3711 56.6414 58.1628 55.7494 55.5178 55.7494C52.8727 55.7494 50.6675 56.6414 48.9021 58.4254C47.1367 60.2094 46.2447 62.4146 46.2261 65.0411C46.2075 67.6675 47.0995 69.8758 48.9021 71.666C50.7047 73.4562 52.9099 74.3451 55.5178 74.3327Z" fill="#0D2601"/>
</svg>
