<svg width="60" height="60" viewBox="0 0 60 60" fill="none" xmlns="http://www.w3.org/2000/svg">
<path d="M0 30C0 13.4315 13.4315 0 30 0C46.5685 0 60 13.4315 60 30C60 46.5685 46.5685 60 30 60C13.4315 60 0 46.5685 0 30Z" fill="#558C03"/>
<path d="M47.5 30C47.5 20.34 39.66 12.5 30 12.5C20.34 12.5 12.5 20.34 12.5 30C12.5 38.47 18.52 45.5225 26.5 47.15V35.25H23V30H26.5V25.625C26.5 22.2475 29.2475 19.5 32.625 19.5H37V24.75H33.5C32.5375 24.75 31.75 25.5375 31.75 26.5V30H37V35.25H31.75V47.4125C40.5875 46.5375 47.5 39.0825 47.5 30Z" fill="black"/>
</svg>
