<svg width="60" height="60" viewBox="0 0 60 60" fill="none" xmlns="http://www.w3.org/2000/svg">
<path d="M0 30C0 13.4315 13.4315 0 30 0C46.5685 0 60 13.4315 60 30C60 46.5685 46.5685 60 30 60C13.4315 60 0 46.5685 0 30Z" fill="#558C03"/>
<path d="M42.25 14.25C43.1783 14.25 44.0685 14.6187 44.7249 15.2751C45.3813 15.9315 45.75 16.8217 45.75 17.75V42.25C45.75 43.1783 45.3813 44.0685 44.7249 44.7249C44.0685 45.3813 43.1783 45.75 42.25 45.75H17.75C16.8217 45.75 15.9315 45.3813 15.2751 44.7249C14.6187 44.0685 14.25 43.1783 14.25 42.25V17.75C14.25 16.8217 14.6187 15.9315 15.2751 15.2751C15.9315 14.6187 16.8217 14.25 17.75 14.25H42.25ZM41.375 41.375V32.1C41.375 30.5869 40.7739 29.1359 39.704 28.066C38.6341 26.9961 37.1831 26.395 35.67 26.395C34.1825 26.395 32.45 27.305 31.61 28.67V26.7275H26.7275V41.375H31.61V32.7475C31.61 31.4 32.695 30.2975 34.0425 30.2975C34.6923 30.2975 35.3154 30.5556 35.7749 31.0151C36.2344 31.4746 36.4925 32.0977 36.4925 32.7475V41.375H41.375ZM21.04 23.98C21.8197 23.98 22.5675 23.6703 23.1189 23.1189C23.6703 22.5675 23.98 21.8197 23.98 21.04C23.98 19.4125 22.6675 18.0825 21.04 18.0825C20.2556 18.0825 19.5034 18.3941 18.9487 18.9487C18.3941 19.5034 18.0825 20.2556 18.0825 21.04C18.0825 22.6675 19.4125 23.98 21.04 23.98ZM23.4725 41.375V26.7275H18.625V41.375H23.4725Z" fill="black"/>
</svg>
