<svg width="60" height="60" viewBox="0 0 60 60" fill="none" xmlns="http://www.w3.org/2000/svg">
<path d="M0 30C0 13.4315 13.4315 0 30 0C46.5685 0 60 13.4315 60 30C60 46.5685 46.5685 60 30 60C13.4315 60 0 46.5685 0 30Z" fill="#558C03"/>
<path d="M14.25 28.25C14.25 21.6508 14.25 18.3502 16.301 16.301C18.352 14.2517 21.6508 14.25 28.25 14.25H31.75C38.3492 14.25 41.6497 14.25 43.699 16.301C45.7482 18.352 45.75 21.6508 45.75 28.25V31.75C45.75 38.3492 45.75 41.6497 43.699 43.699C41.648 45.7482 38.3492 45.75 31.75 45.75H28.25C21.6508 45.75 18.3502 45.75 16.301 43.699C14.2517 41.648 14.25 38.3492 14.25 31.75V28.25Z" stroke="#0D2601" stroke-width="2"/>
<path d="M37.875 24.75C39.3247 24.75 40.5 23.5747 40.5 22.125C40.5 20.6753 39.3247 19.5 37.875 19.5C36.4253 19.5 35.25 20.6753 35.25 22.125C35.25 23.5747 36.4253 24.75 37.875 24.75Z" fill="#0D2601"/>
<path d="M30 35.25C32.8995 35.25 35.25 32.8995 35.25 30C35.25 27.1005 32.8995 24.75 30 24.75C27.1005 24.75 24.75 27.1005 24.75 30C24.75 32.8995 27.1005 35.25 30 35.25Z" stroke="#0D2601" stroke-width="2"/>
</svg>
